<svg width="22" height="22" viewBox="0 0 22 22" fill="none" xmlns="http://www.w3.org/2000/svg">
<g clip-path="url(#clip0_1_5615)">
<path d="M16.8336 5.16637C20.0554 8.3882 20.0554 13.6118 16.8336 16.8336C13.6118 20.0554 8.38818 20.0554 5.16637 16.8336C1.94454 13.6118 1.94454 8.38818 5.16637 5.16637C8.3882 1.94454 13.6118 1.94454 16.8336 5.16637Z" stroke="#A2A2A7" stroke-width="1.3" stroke-linecap="round" stroke-linejoin="round"/>
<path d="M12.8233 7.63025C13.8303 8.63724 13.8303 10.2699 12.8233 11.2769C11.8163 12.2839 10.1836 12.2839 9.17663 11.2769C8.16964 10.2699 8.16964 8.63724 9.17663 7.63025C10.1836 6.62325 11.8163 6.62325 12.8233 7.63025Z" stroke="#A2A2A7" stroke-width="1.3" stroke-linecap="round" stroke-linejoin="round"/>
<path d="M16.2314 17.3782C14.916 15.9931 13.0606 15.125 11 15.125C8.93931 15.125 7.08397 15.9931 5.76855 17.3791" stroke="#A2A2A7" stroke-width="1.3" stroke-linecap="round" stroke-linejoin="round"/>
</g>
<defs>
<clipPath id="clip0_1_5615">
<rect width="22" height="22" fill="white"/>
</clipPath>
</defs>
</svg>
