<svg width="30" height="9" viewBox="0 0 30 9" fill="none" xmlns="http://www.w3.org/2000/svg">
<path d="M0 8.11357H1.22424V4.57575H5.26915V8.11357H6.49724V0H5.26915V3.52595H1.22424V0H0V8.11357ZM10.7481 8.23639C12.4636 8.23639 13.5848 6.98051 13.5848 5.09867C13.5848 3.20506 12.4636 1.94919 10.7481 1.94919C9.03273 1.94919 7.91154 3.20506 7.91154 5.09867C7.91154 6.98051 9.03273 8.23639 10.7481 8.23639ZM10.7521 7.24197C9.63091 7.24197 9.10799 6.26347 9.10799 5.09471C9.10799 3.93001 9.63091 2.93955 10.7521 2.93955C11.8654 2.93955 12.3883 3.93001 12.3883 5.09471C12.3883 6.26347 11.8654 7.24197 10.7521 7.24197ZM14.907 8.11357H16.0915V4.36185C16.0915 3.54177 16.666 2.97129 17.3394 2.97129C17.9971 2.97129 18.4527 3.40709 18.4527 4.06865V8.11357H19.6332V4.23508C19.6332 3.50212 20.0809 2.97129 20.8535 2.97129C21.4795 2.97129 21.9945 3.31987 21.9945 4.1439V8.11357H23.1789V4.03305C23.1789 2.64249 22.4025 1.94919 21.3012 1.94919C20.4256 1.94919 19.768 2.36906 19.4748 3.01886H19.4114C19.146 2.35324 18.5874 1.94919 17.7752 1.94919C16.9709 1.94919 16.3728 2.34928 16.1192 3.01886H16.044V2.02839H14.907V8.11357ZM27.3893 8.23639C28.7165 8.23639 29.6554 7.58274 29.9248 6.59227L28.8036 6.39025C28.5897 6.96469 28.0747 7.25779 27.4011 7.25779C26.3869 7.25779 25.7055 6.60019 25.6739 5.42757H30V5.00759C30 2.80882 28.6847 1.94919 27.3061 1.94919C25.6105 1.94919 24.4932 3.24066 24.4932 5.11064C24.4932 7.00029 25.5947 8.23639 27.3893 8.23639ZM25.6778 4.54015C25.7254 3.67646 26.3513 2.92768 27.314 2.92768C28.2331 2.92768 28.8353 3.60912 28.8393 4.54015H25.6778Z" fill="#8B8B94"/>
</svg>
