<svg width="22" height="22" viewBox="0 0 22 22" fill="none" xmlns="http://www.w3.org/2000/svg">
<g clip-path="url(#clip0_1_6282)">
<path d="M8.89893 16.8154V17.15C8.89893 18.3095 9.83943 19.25 10.9999 19.25C12.1604 19.25 13.1009 18.3095 13.1009 17.149V16.8145" stroke="#1E1E2D" stroke-width="1.3" stroke-linecap="round" stroke-linejoin="round"/>
<path d="M12.6803 5.27175V4.43025C12.6803 3.50258 11.9287 2.75 11.0001 2.75C10.0715 2.75 9.31982 3.50258 9.31982 4.43025V5.27175" stroke="#1E1E2D" stroke-width="1.3" stroke-linecap="round" stroke-linejoin="round"/>
<path d="M6.01592 9.33896C6.01592 7.04455 7.87584 5.18555 10.1693 5.18555H11.8313C14.1257 5.18555 15.9847 7.04546 15.9847 9.33896V11.9029C15.9847 12.3887 16.1781 12.8553 16.5218 13.199L17.1094 13.7866C17.4532 14.1304 17.6466 14.597 17.6466 15.0828C17.6466 16.0398 16.8711 16.8153 15.9141 16.8153H6.0865C5.1295 16.8153 4.354 16.0398 4.354 15.0828C4.354 14.597 4.54742 14.1304 4.89117 13.7866L5.47875 13.199C5.8225 12.8553 6.01592 12.3887 6.01592 11.9029V9.33896Z" stroke="#1E1E2D" stroke-width="1.3" stroke-linecap="round" stroke-linejoin="round"/>
</g>
<defs>
<clipPath id="clip0_1_6282">
<rect width="22" height="22" fill="white"/>
</clipPath>
</defs>
</svg>
