<svg width="17" height="19" viewBox="0 0 17 19" fill="none" xmlns="http://www.w3.org/2000/svg">
<path d="M10.5666 18.2826L14.892 17.3161C15.6843 17.1401 16.2478 16.4338 16.2478 15.619V3.38101C16.2478 2.56619 15.6843 1.85995 14.893 1.68387L10.5675 0.717435C9.48619 0.475825 8.46129 1.30238 8.46129 2.41555V16.5854C8.46129 17.6976 9.48619 18.5242 10.5666 18.2826Z" stroke="#1E1E2D" stroke-width="1.3" stroke-linecap="round" stroke-linejoin="round"/>
<path d="M11.3812 8.48131V10.4377" stroke="#1E1E2D" stroke-width="1.3" stroke-linecap="round" stroke-linejoin="round"/>
<path d="M0.674733 13.3918V15.3892C0.674733 16.4701 1.54585 17.3455 2.62137 17.3455H5.54133" stroke="#1E1E2D" stroke-width="1.3" stroke-linecap="round" stroke-linejoin="round"/>
<path d="M0.674733 5.56634V3.60998C0.674733 2.5291 1.54585 1.65363 2.62137 1.65363H5.54133" stroke="#1E1E2D" stroke-width="1.3" stroke-linecap="round" stroke-linejoin="round"/>
<path d="M0.674733 9.47896H5.54133" stroke="#1E1E2D" stroke-width="1.3" stroke-linecap="round" stroke-linejoin="round"/>
<path d="M3.59469 11.4354L5.54133 9.47905L3.59469 7.52269" stroke="#1E1E2D" stroke-width="1.3" stroke-linecap="round" stroke-linejoin="round"/>
</svg>
