<svg width="17" height="17" viewBox="0 0 17 17" fill="none" xmlns="http://www.w3.org/2000/svg">
<path d="M7.41756 9.58233C6.31067 8.47545 5.47625 7.23612 4.92187 5.97881C4.80456 5.71297 4.87362 5.40172 5.07891 5.19642L5.85373 4.42255C6.48853 3.78775 6.48853 2.88994 5.93415 2.33556L4.82348 1.22489C4.08461 0.486021 2.8869 0.486021 2.14804 1.22489L1.53121 1.84172C0.830182 2.54274 0.537851 3.55407 0.727062 4.55689C1.19441 7.02893 2.63052 9.73559 4.94741 12.0525C7.2643 14.3694 9.97096 15.8055 12.443 16.2728C13.4458 16.462 14.4571 16.1697 15.1582 15.4687L15.7741 14.8528C16.5129 14.1139 16.5129 12.9162 15.7741 12.1774L14.6643 11.0676C14.1099 10.5132 13.2112 10.5132 12.6578 11.0676L11.8035 11.9229C11.5982 12.1282 11.2869 12.1972 11.0211 12.0799C9.76377 11.5246 8.52444 10.6892 7.41756 9.58233Z" stroke="#A2A2A7" stroke-width="1.3" stroke-linecap="round" stroke-linejoin="round"/>
</svg>
