<svg width="18" height="18" viewBox="0 0 18 18" fill="none" xmlns="http://www.w3.org/2000/svg">
<path fill-rule="evenodd" clip-rule="evenodd" d="M11.929 0.895094L12.5286 1.09464C13.0779 1.27774 13.4492 1.79204 13.4492 2.37114V3.23209C13.4492 3.96446 14.0335 4.56208 14.7659 4.57751L15.6278 4.59602C16.1267 4.60631 16.5793 4.89329 16.8025 5.33971L17.0854 5.90544C17.3446 6.42386 17.2428 7.04925 16.8334 7.45864L16.2244 8.06757C15.707 8.58496 15.6978 9.42122 16.2039 9.94992L16.8004 10.5733C17.146 10.9343 17.2633 11.4558 17.1049 11.93L16.9054 12.5297C16.7223 13.0789 16.208 13.4503 15.6289 13.4503H14.7679C14.0356 13.4503 13.4379 14.0345 13.4225 14.7669L13.404 15.6289C13.3937 16.1277 13.1067 16.5803 12.6603 16.8035L12.0946 17.0864C11.5762 17.3456 10.9508 17.2438 10.5414 16.8344L9.93242 16.2255C9.41504 15.7081 8.5788 15.6988 8.05008 16.2049L7.42673 16.8015C7.06571 17.1471 6.54421 17.2644 6.07003 17.1059L5.47034 16.9064C4.92107 16.7233 4.54972 16.209 4.54972 15.6299V14.769C4.54972 14.0366 3.96548 13.439 3.2331 13.4235L2.37115 13.405C1.87226 13.3947 1.41967 13.1077 1.19648 12.6613L0.913619 12.0956C0.654395 11.5772 0.756226 10.9518 1.16562 10.5424L1.77454 9.93347C2.29195 9.41608 2.30121 8.57982 1.79513 8.05111L1.19852 7.42778C0.851873 7.06571 0.73463 6.54318 0.893027 6.07002L1.09258 5.47034C1.27568 4.92106 1.78998 4.54974 2.36908 4.54974H3.23003C3.9624 4.54974 4.56001 3.96549 4.57546 3.23312L4.59395 2.37114C4.60632 1.87227 4.89225 1.41968 5.33866 1.19648L5.90441 0.913609C6.42283 0.654399 7.04822 0.756232 7.45762 1.16562L8.06653 1.77455C8.58391 2.29194 9.42019 2.3012 9.9489 1.79513L10.5722 1.19853C10.9333 0.853949 11.4558 0.736687 11.929 0.895094Z" stroke="#0066FF" stroke-width="1.5" stroke-linecap="round" stroke-linejoin="round"/>
</svg>
