<svg width="22" height="22" viewBox="0 0 22 22" fill="none" xmlns="http://www.w3.org/2000/svg">
<g clip-path="url(#clip0_1_5674)">
<path d="M12.6206 9.37959C13.5156 10.2745 13.5156 11.7255 12.6206 12.6205C11.7257 13.5154 10.2747 13.5154 9.37971 12.6205C8.48476 11.7255 8.48476 10.2745 9.37971 9.37959C10.2747 8.48464 11.7257 8.48464 12.6206 9.37959Z" stroke="#A2A2A7" stroke-width="1.3" stroke-linecap="round" stroke-linejoin="round"/>
<path d="M13.6117 3.77669L14.1461 3.95452C14.6356 4.11769 14.9666 4.57602 14.9666 5.0921V5.85935C14.9666 6.51202 15.4872 7.0446 16.1399 7.05835L16.9081 7.07485C17.3526 7.08402 17.756 7.33977 17.9549 7.7376L18.207 8.24177C18.438 8.70377 18.3472 9.2611 17.9824 9.62594L17.4397 10.1686C16.9786 10.6297 16.9704 11.3749 17.4214 11.8461L17.9531 12.4016C18.2611 12.7234 18.3656 13.1881 18.2244 13.6107L18.0466 14.1451C17.8834 14.6346 17.4251 14.9655 16.909 14.9655H16.1417C15.4891 14.9655 14.9565 15.4862 14.9427 16.1389L14.9262 16.907C14.9171 17.3516 14.6613 17.7549 14.2635 17.9539L13.7593 18.2059C13.2973 18.4369 12.74 18.3462 12.3751 17.9814L11.8325 17.4387C11.3714 16.9776 10.6261 16.9694 10.155 17.4204L9.59947 17.952C9.27772 18.26 8.81297 18.3645 8.39039 18.2234L7.85597 18.0455C7.36647 17.8824 7.03556 17.424 7.03556 16.9079V16.1407C7.03556 15.488 6.51489 14.9554 5.86222 14.9417L5.09406 14.9252C4.64947 14.916 4.24614 14.6603 4.04722 14.2624L3.79514 13.7583C3.56414 13.2963 3.65489 12.7389 4.01972 12.3741L4.56239 11.8314C5.02347 11.3704 5.03172 10.6251 4.58072 10.1539L4.04906 9.59844C3.74014 9.27577 3.63564 8.8101 3.77681 8.38844L3.95464 7.85402C4.11781 7.36452 4.57614 7.0336 5.09222 7.0336H5.85947C6.51214 7.0336 7.04472 6.51294 7.05847 5.86027L7.07497 5.0921C7.08597 4.64752 7.34081 4.24419 7.73864 4.04527L8.24281 3.79319C8.70481 3.56219 9.26214 3.65294 9.62697 4.01777L10.1696 4.56044C10.6307 5.02152 11.376 5.02977 11.8471 4.57877L12.4026 4.0471C12.7244 3.74002 13.1901 3.63552 13.6117 3.77669Z" stroke="#A2A2A7" stroke-width="1.3" stroke-linecap="round" stroke-linejoin="round"/>
</g>
<defs>
<clipPath id="clip0_1_5674">
<rect width="22" height="22" fill="white"/>
</clipPath>
</defs>
</svg>
