<svg width="18" height="18" viewBox="0 0 18 18" fill="none" xmlns="http://www.w3.org/2000/svg">
<path d="M4.79196 11.3096L3.21319 3.85704H16.1992C16.8688 3.85704 17.3594 4.48546 17.1969 5.13548L15.8104 10.6812C15.5996 11.5236 14.8837 12.1427 14.0198 12.2291L7.00943 12.9306C5.96446 13.0345 5.00898 12.3361 4.79196 11.3096Z" stroke="#E16364" stroke-width="1.5" stroke-linecap="round" stroke-linejoin="round"/>
<path d="M3.2131 3.85695L2.54456 0.771407H0.771407" stroke="#E16364" stroke-width="1.5" stroke-linecap="round" stroke-linejoin="round"/>
<path d="M14.7685 16.4738C14.5607 16.4738 14.392 16.6424 14.3941 16.8502C14.3941 17.058 14.5628 17.2266 14.7705 17.2266C14.9783 17.2266 15.147 17.058 15.147 16.8502C15.1459 16.6424 14.9773 16.4738 14.7685 16.4738Z" stroke="#E16364" stroke-width="1.5" stroke-linecap="round" stroke-linejoin="round"/>
<path d="M6.11726 16.4738C5.9095 16.4738 5.74083 16.6424 5.74288 16.8502C5.74083 17.059 5.91053 17.2277 6.11829 17.2277C6.32605 17.2277 6.49473 17.059 6.49473 16.8512C6.49473 16.6424 6.32605 16.4738 6.11726 16.4738Z" stroke="#E16364" stroke-width="1.5" stroke-linecap="round" stroke-linejoin="round"/>
</svg>
