<svg width="14" height="18" viewBox="0 0 14 18" fill="none" xmlns="http://www.w3.org/2000/svg">
<path d="M13.7066 14.0275C13.4552 14.6563 13.1577 15.2352 12.813 15.7674C12.3431 16.4929 11.9584 16.9951 11.6619 17.274C11.2023 17.7318 10.7098 17.9662 10.1825 17.9796C9.80391 17.9796 9.34735 17.8629 8.81593 17.6262C8.28274 17.3907 7.79275 17.274 7.34472 17.274C6.87484 17.274 6.37088 17.3907 5.83187 17.6262C5.29201 17.8629 4.85712 17.9862 4.5246 17.9985C4.01892 18.0218 3.51488 17.7807 3.01176 17.274C2.69063 16.9707 2.28899 16.4507 1.80781 15.7141C1.29156 14.9274 0.867132 14.0152 0.534618 12.9753C0.178514 11.852 0 10.7642 0 9.71116C0 8.50486 0.240688 7.46445 0.722778 6.59259C1.10166 5.89228 1.6057 5.33985 2.23656 4.93432C2.8674 4.52877 3.54904 4.3221 4.2831 4.30889C4.68476 4.30889 5.21147 4.44344 5.86603 4.70788C6.51874 4.97321 6.93783 5.10775 7.12158 5.10775C7.25894 5.10775 7.72453 4.95042 8.51378 4.63677C9.26016 4.34589 9.89008 4.22543 10.4061 4.27289C11.8045 4.3951 12.8551 4.99208 13.5537 6.06761C12.3031 6.88826 11.6844 8.03766 11.6968 9.51217C11.708 10.6607 12.0928 11.6164 12.8489 12.3753C13.1916 12.7275 13.5742 12.9997 14 13.1931C13.9077 13.483 13.8102 13.7608 13.7066 14.0275ZM10.4995 0.360107C10.4995 1.26031 10.1958 2.10083 9.5905 2.87881C8.86004 3.80367 7.9765 4.3381 7.01837 4.25377C7.00554 4.14059 6.99909 4.02668 6.99908 3.91266C6.99908 3.04847 7.34646 2.1236 7.96337 1.36741C8.27135 0.984529 8.66306 0.666177 9.13807 0.412218C9.61205 0.162049 10.0604 0.0236978 10.4821 0C10.4944 0.120339 10.4995 0.240708 10.4995 0.360107Z" fill="#1E1E2D"/>
</svg>
