<svg width="22" height="22" viewBox="0 0 22 22" fill="none" xmlns="http://www.w3.org/2000/svg">
<g clip-path="url(#clip0_1_5655)">
<path d="M8.42233 15.5833L10.175 17.9208C10.5875 18.4708 11.4125 18.4708 11.825 17.9208L13.5777 15.5833H16.5C18.0189 15.5833 19.25 14.3522 19.25 12.8333V7.33325C19.25 5.81434 18.0189 4.58325 16.5 4.58325H5.5C3.98108 4.58325 2.75 5.81434 2.75 7.33325V12.8333C2.75 14.3522 3.98108 15.5833 5.5 15.5833H8.42233Z" stroke="#A2A2A7" stroke-width="1.3" stroke-linecap="round" stroke-linejoin="round"/>
<path d="M11.1624 10.3793C11.2522 10.4691 11.2522 10.614 11.1624 10.7038C11.0725 10.7936 10.9277 10.7936 10.8379 10.7038C10.748 10.614 10.748 10.4691 10.8379 10.3793C10.9277 10.2895 11.0725 10.2904 11.1624 10.3793Z" stroke="#A2A2A7" stroke-width="1.3" stroke-linecap="round" stroke-linejoin="round"/>
<path d="M14.8289 10.3793C14.9187 10.4691 14.9187 10.614 14.8289 10.7038C14.7391 10.7936 14.5942 10.7936 14.5044 10.7038C14.4146 10.614 14.4146 10.4691 14.5044 10.3793C14.5942 10.2895 14.7391 10.2904 14.8289 10.3793Z" stroke="#A2A2A7" stroke-width="1.3" stroke-linecap="round" stroke-linejoin="round"/>
<path d="M7.49539 10.3793C7.58522 10.4691 7.58522 10.614 7.49539 10.7038C7.40556 10.7936 7.26072 10.7936 7.17089 10.7038C7.08106 10.614 7.08106 10.4691 7.17089 10.3793C7.26072 10.2895 7.40556 10.2904 7.49539 10.3793Z" stroke="#A2A2A7" stroke-width="1.3" stroke-linecap="round" stroke-linejoin="round"/>
</g>
<defs>
<clipPath id="clip0_1_5655">
<rect width="22" height="22" fill="white"/>
</clipPath>
</defs>
</svg>
