<svg width="335" height="311" viewBox="0 0 335 311" fill="none" xmlns="http://www.w3.org/2000/svg">
<path d="M335 118.39L241.816 205.614L194.069 154.939L287.252 67.7151L335 118.39Z" fill="#3F467B"/>
<path d="M286.886 75.8853L202.249 155.164L242.007 197.357L326.646 118.078L286.886 75.8853Z" stroke="#FCFFFD"/>
<path d="M286.786 79.1406L205.515 155.265L242.109 194.1L323.379 117.976L286.786 79.1406Z" stroke="#FCFFFD" stroke-width="0.5"/>
<path d="M249.363 131.748L254.446 124.223L256.602 122.227L274.007 140.654L276.473 138.351L280.939 143.111L270.773 152.632L266.307 147.872L269.079 145.261L256.141 131.441L252.442 134.819L249.363 131.748Z" fill="#FCFFFD"/>
<path d="M227.799 155.083C223.178 159.536 222.871 166.754 227.337 171.514C231.804 176.274 239.043 176.428 243.818 171.974C248.592 167.521 248.747 160.304 244.279 155.543C239.813 150.936 232.42 150.783 227.799 155.083ZM233.652 163.375C233.96 163.375 234.422 163.221 235.038 163.068C236.116 162.607 237.041 162.454 237.657 162.454C238.427 162.454 239.043 162.761 239.659 163.375C240.275 163.989 240.583 164.603 240.429 165.371C240.429 166.139 240.121 166.754 239.505 167.521L240.429 168.596L239.505 169.364L238.581 168.289C237.811 168.903 237.041 169.211 236.27 169.211C235.5 169.211 234.73 168.75 233.96 167.982L235.5 166.446C235.962 166.907 236.425 167.214 236.732 167.214C237.195 167.214 237.502 167.06 237.811 166.754C238.119 166.446 238.273 166.139 238.273 165.832C238.273 165.525 238.119 165.218 237.811 164.911C237.502 164.603 237.195 164.45 236.886 164.45C236.578 164.45 236.116 164.45 235.5 164.757C234.422 165.218 233.498 165.525 232.882 165.525C232.112 165.525 231.496 165.218 230.88 164.603C230.264 163.989 229.955 163.375 230.109 162.607C230.109 161.839 230.418 161.225 231.034 160.457L229.955 159.382L230.88 158.614L231.958 159.843C232.728 159.382 233.498 159.075 234.114 159.229C234.884 159.382 235.654 159.689 236.27 160.457L234.73 161.993C234.268 161.532 233.96 161.379 233.498 161.225C233.19 161.225 232.728 161.225 232.42 161.532C232.112 161.839 231.958 162.146 231.958 162.454C231.958 162.761 232.112 163.068 232.42 163.375C233.036 163.221 233.344 163.375 233.652 163.375Z" fill="#FCFFFD"/>
<path d="M285.097 101.349C280.479 105.803 280.169 113.02 284.636 117.781C289.102 122.387 296.341 122.695 301.118 118.241C305.891 113.788 306.046 106.57 301.579 101.81C297.113 97.2033 289.719 97.0498 285.097 101.349ZM291.107 109.642C291.413 109.642 291.875 109.488 292.491 109.335C293.569 108.874 294.495 108.72 295.108 108.72C295.88 108.72 296.496 109.027 297.113 109.642C297.729 110.256 298.035 110.87 297.884 111.638C297.884 112.406 297.574 113.02 296.958 113.788L297.884 114.863L296.958 115.631L296.035 114.556C295.263 115.17 294.495 115.477 293.724 115.477C292.952 115.477 292.185 115.016 291.413 114.249L292.952 112.713C293.414 113.174 293.879 113.481 294.185 113.481C294.647 113.481 294.957 113.327 295.263 113.02C295.573 112.713 295.725 112.406 295.725 112.099C295.725 111.792 295.573 111.484 295.263 111.177C294.957 110.87 294.647 110.717 294.34 110.717C294.03 110.717 293.569 110.717 292.952 111.024C291.875 111.484 290.952 111.792 290.335 111.792C289.564 111.792 288.947 111.484 288.334 110.87C287.718 110.256 287.408 109.642 287.563 108.874C287.563 108.106 287.869 107.492 288.486 106.724L287.408 105.649L288.334 104.881L289.412 106.11C290.18 105.649 290.952 105.342 291.568 105.496C292.336 105.649 293.107 105.956 293.724 106.724L292.185 108.26C291.723 107.799 291.413 107.645 290.952 107.492C290.642 107.492 290.18 107.492 289.874 107.799C289.564 108.106 289.412 108.413 289.412 108.72C289.412 109.027 289.564 109.335 289.874 109.642C290.49 109.488 290.642 109.642 291.107 109.642Z" fill="#FCFFFD"/>
<path d="M209.779 151.245C211.936 153.549 211.936 157.234 209.471 159.384C207.161 161.534 203.464 161.534 201.308 159.077C199.152 156.773 199.152 153.088 201.616 150.938C203.927 148.788 207.623 148.942 209.779 151.245Z" fill="#FCFFFD"/>
<path d="M242.125 199.915C245.358 199.915 247.98 197.302 247.98 194.079C247.98 190.857 245.358 188.244 242.125 188.244C238.893 188.244 236.272 190.857 236.272 194.079C236.272 197.302 238.893 199.915 242.125 199.915Z" fill="#FCFFFD"/>
<path d="M291.105 75.097C293.261 77.4006 293.261 81.0861 290.795 83.2358C288.333 85.3859 284.789 85.3859 282.634 82.9289C280.478 80.6253 280.478 76.9398 282.94 74.7897C285.251 72.7935 288.946 72.7935 291.105 75.097Z" fill="#FCFFFD"/>
<path d="M323.447 123.766C326.68 123.766 329.301 121.154 329.301 117.931C329.301 114.708 326.68 112.096 323.447 112.096C320.217 112.096 317.596 114.708 317.596 117.931C317.596 121.154 320.217 123.766 323.447 123.766Z" fill="#FCFFFD"/>
<path d="M280.165 121.92C288.33 130.519 287.868 144.033 279.242 152.172C270.615 160.311 257.064 159.85 248.899 151.25C240.736 142.651 241.198 129.137 249.825 120.998C258.448 113.013 272.003 113.32 280.165 121.92Z" stroke="#FCFFFD"/>
<path d="M87.4849 205.615L0 112.709L50.8277 65.1045L138.313 158.01L87.4849 205.615Z" fill="#3F467B"/>
<path d="M130.055 157.722L50.5389 73.3374L8.22021 112.977L87.7366 197.362L130.055 157.722Z" stroke="#FCFFFD"/>
<path d="M50.4758 76.4827L11.5244 112.968L87.8769 193.996L126.828 157.511L50.4758 76.4827Z" stroke="#FCFFFD" stroke-width="0.5"/>
<path d="M74.0848 120.23L81.6322 125.297L83.6344 127.447L65.1517 144.8L67.4621 147.257L62.6873 151.71L53.1377 141.575L57.9125 137.121L60.5308 139.886L74.393 126.986L70.8504 123.301L74.0848 120.23Z" fill="#FCFFFD"/>
<path d="M50.5209 98.7393C46.0543 94.1322 38.8152 93.8253 34.0404 98.2785C29.4199 102.732 29.1116 109.949 33.5782 114.71C38.0451 119.317 45.2839 119.624 50.0587 115.171C54.6796 110.717 54.9875 103.346 50.5209 98.7393ZM42.2035 104.575C42.2035 104.882 42.3578 105.343 42.5117 105.957C42.9739 107.032 43.1278 107.953 43.1278 108.568C43.1278 109.335 42.8196 109.949 42.2035 110.564C41.5874 111.178 40.9713 111.485 40.2013 111.331C39.4312 111.331 38.8152 111.025 38.0451 110.41L36.9669 111.331L36.1969 110.41L37.2747 109.489C36.6586 108.721 36.3508 107.953 36.3508 107.186C36.3508 106.417 36.813 105.65 37.583 104.882L39.123 106.417C38.6612 106.878 38.353 107.339 38.353 107.646C38.353 108.107 38.5069 108.414 38.8152 108.721C39.123 109.028 39.4313 109.182 39.7391 109.182C40.0473 109.182 40.3552 109.028 40.6634 108.721C40.9713 108.414 41.1256 108.107 41.1256 107.8C41.1256 107.492 41.1256 107.032 40.8174 106.417C40.3552 105.343 40.0473 104.421 40.0473 103.807C40.0473 103.039 40.3552 102.425 40.9713 101.811C41.5874 101.196 42.2035 100.889 42.9739 101.043C43.7439 101.043 44.36 101.35 45.13 101.964L46.2083 100.889L46.9783 101.811L46.2083 103.193C46.6704 103.96 46.9783 104.729 46.8243 105.343C46.6704 106.111 46.3622 106.878 45.5922 107.492L44.0517 105.957C44.5139 105.496 44.6678 105.189 44.8221 104.729C44.8221 104.421 44.8221 103.96 44.5139 103.653C44.2061 103.346 43.8978 103.193 43.59 103.193C43.2817 103.193 42.9739 103.346 42.6656 103.653C42.5117 103.96 42.3578 104.268 42.2035 104.575Z" fill="#FCFFFD"/>
<path d="M104.429 155.85C99.962 151.243 92.7229 150.936 87.9481 155.389C83.3276 159.842 83.0194 167.06 87.4859 171.82C91.9529 176.427 99.1917 176.734 103.966 172.281C108.587 167.827 108.895 160.61 104.429 155.85ZM96.1112 161.838C96.1112 162.146 96.2655 162.606 96.4194 163.221C96.8816 164.295 97.0355 165.217 97.0355 165.831C97.0355 166.599 96.7273 167.213 96.1112 167.827C95.4951 168.442 94.879 168.749 94.109 168.595C93.339 168.595 92.7229 168.288 91.9528 167.674L90.8746 168.595L90.1046 167.674L91.1825 166.752C90.5664 165.985 90.2585 165.217 90.2585 164.449C90.2585 163.681 90.7207 162.913 91.4907 162.146L93.0307 163.681C92.5689 164.142 92.2607 164.603 92.2607 164.91C92.2607 165.37 92.4146 165.678 92.7229 165.985C93.0307 166.292 93.339 166.445 93.6468 166.445C93.9551 166.445 94.2629 166.292 94.5711 165.985C94.879 165.678 95.0333 165.37 95.0333 165.063C95.0333 164.756 95.0333 164.295 94.7251 163.681C94.2629 162.606 93.955 161.685 93.955 161.071C93.955 160.303 94.2629 159.689 94.879 159.074C95.4951 158.46 96.1112 158.153 96.8816 158.307C97.6516 158.307 98.2677 158.614 99.0377 159.228L100.116 158.153L100.886 159.074L100.116 160.303C100.578 161.071 100.886 161.838 100.732 162.453C100.578 163.221 100.27 163.988 99.4999 164.603L97.9595 163.067C98.4216 162.606 98.5755 162.299 98.7298 161.838C98.7298 161.531 98.7299 161.071 98.4216 160.764C98.1138 160.456 97.8055 160.303 97.4977 160.303C97.1894 160.303 96.8816 160.456 96.5734 160.764C96.2655 161.224 96.1112 161.531 96.1112 161.838Z" fill="#FCFFFD"/>
<path d="M54.3714 80.7796C52.0609 82.9292 48.3644 82.9293 46.2083 80.4721C44.0518 78.1687 44.0518 74.4832 46.5161 72.3335C48.8266 70.1834 52.5231 70.1834 54.6792 72.6404C56.8357 74.944 56.8357 78.6295 54.3714 80.7796Z" fill="#FCFFFD"/>
<path d="M15.4037 117.318C13.0932 119.468 9.39667 119.468 7.24017 117.011C5.08403 114.708 5.08404 111.022 7.5484 108.872C9.85884 106.722 13.5554 106.722 15.7115 109.179C17.868 111.636 17.868 115.015 15.4037 117.318Z" fill="#FCFFFD"/>
<path d="M128.298 163.178C131.415 162.325 133.248 159.114 132.392 156.006C131.536 152.898 128.316 151.071 125.199 151.924C122.082 152.777 120.248 155.988 121.104 159.096C121.96 162.204 125.181 164.031 128.298 163.178Z" fill="#FCFFFD"/>
<path d="M91.7972 198.225C89.4868 200.375 85.7902 200.375 83.6337 197.918C81.4776 195.615 81.4776 191.929 83.942 189.779C86.2524 187.629 89.9489 187.629 92.1051 190.086C94.2616 192.39 94.1073 196.075 91.7972 198.225Z" fill="#FCFFFD"/>
<path d="M83.7895 150.944C75.1642 159.083 61.6102 158.622 53.4471 150.022C45.2836 141.423 45.7457 127.909 54.371 119.771C62.9963 111.632 76.5503 112.093 84.7134 120.692C92.8769 129.292 92.4148 142.805 83.7895 150.944Z" stroke="#FCFFFD"/>
<path d="M249.669 267.761L313.434 214.629C313.434 214.475 307.122 281.582 249.669 267.761Z" fill="#0066FF"/>
<path d="M249.67 267.761L313.435 214.628C313.435 214.475 245.973 208.947 249.67 267.761Z" fill="#418DFF"/>
<path d="M244.896 277.896L300.651 274.672C300.651 274.672 270.308 308.456 244.896 277.896Z" fill="#0066FF"/>
<path d="M244.896 277.897L300.651 274.672C300.651 274.672 266.613 244.727 244.896 277.897Z" fill="#418DFF"/>
<path d="M101.348 255.184L41.4326 220.786C41.4326 220.786 95.8029 206.505 101.348 255.184Z" fill="#418DFF"/>
<path d="M101.348 255.183L41.4326 220.784C41.4326 220.784 56.3731 274.685 101.348 255.183Z" fill="#0066FF"/>
<path d="M106.585 267.3L19.1001 270.064C19.1001 270.064 68.0795 218.621 106.585 267.3Z" fill="#418DFF"/>
<path d="M106.585 267.3L19.1001 270.064C19.1001 270.064 71.16 318.283 106.585 267.3Z" fill="#0066FF"/>
<path d="M220.56 288.185C241.826 288.185 259.065 281.723 259.065 273.75C259.065 265.778 241.826 259.315 220.56 259.315C199.294 259.315 182.054 265.778 182.054 273.75C182.054 281.723 199.294 288.185 220.56 288.185Z" fill="#FFCE5B"/>
<path d="M182.054 285.881C182.054 293.867 199.305 300.315 220.56 300.315C241.815 300.315 259.065 293.867 259.065 285.881V273.749C259.065 281.735 241.815 288.185 220.56 288.185C199.305 288.185 182.054 281.735 182.054 273.749V285.881Z" fill="#FFE7AD"/>
<path d="M206.698 287.264C192.22 285.113 182.054 279.892 182.054 273.749V285.881C182.054 292.023 192.22 297.246 206.698 299.395V287.264Z" fill="#F7BF30"/>
<path d="M220.56 288.184H215.786V300.315H220.56V288.184Z" fill="#FFC234"/>
<path d="M219.021 272.829C240.287 272.829 257.526 266.366 257.526 258.394C257.526 250.422 240.287 243.959 219.021 243.959C197.755 243.959 180.516 250.422 180.516 258.394C180.516 266.366 197.755 272.829 219.021 272.829Z" fill="#FFCE5B"/>
<path d="M180.516 270.525C180.516 278.51 197.766 284.96 219.021 284.96C240.276 284.96 257.526 278.51 257.526 270.525V258.393C257.526 266.378 240.276 272.828 219.021 272.828C197.766 272.828 180.516 266.378 180.516 258.393V270.525Z" fill="#FFE7AD"/>
<path d="M205.159 271.907C190.681 269.757 180.516 264.536 180.516 258.393V270.525C180.516 276.667 190.681 281.888 205.159 284.038V271.907Z" fill="#F7BF30"/>
<path d="M219.021 272.828H214.247V284.959H219.021V272.828Z" fill="#FFC234"/>
<path d="M228.262 258.408C249.53 258.408 266.768 251.945 266.768 243.973C266.768 236.001 249.53 229.538 228.262 229.538C206.996 229.538 189.756 236.001 189.756 243.973C189.756 251.945 206.996 258.408 228.262 258.408Z" fill="#FFCE5B"/>
<path d="M189.756 256.09C189.756 264.076 207.007 270.525 228.262 270.525C249.519 270.525 266.768 264.076 266.768 256.09V243.959C266.768 251.944 249.519 258.394 228.262 258.394C207.007 258.394 189.756 251.944 189.756 243.959V256.09Z" fill="#FFE7AD"/>
<path d="M214.4 257.473C199.922 255.323 189.756 250.102 189.756 243.959V256.09C189.756 262.233 199.922 267.454 214.4 269.604V257.473Z" fill="#F7BF30"/>
<path d="M228.263 258.393H223.488V270.525H228.263V258.393Z" fill="#FFC234"/>
<path d="M220.56 243.056C241.826 243.056 259.065 236.593 259.065 228.621C259.065 220.648 241.826 214.186 220.56 214.186C199.294 214.186 182.054 220.648 182.054 228.621C182.054 236.593 199.294 243.056 220.56 243.056Z" fill="#FFCE5B"/>
<path d="M182.054 240.749C182.054 248.734 199.305 255.184 220.56 255.184C241.815 255.184 259.065 248.734 259.065 240.749V228.617C259.065 236.603 241.815 243.053 220.56 243.053C199.305 243.053 182.054 236.603 182.054 228.617V240.749Z" fill="#FFE7AD"/>
<path d="M206.698 242.131C192.22 239.981 182.054 234.76 182.054 228.617V240.749C182.054 246.892 192.22 252.113 206.698 254.263V242.131Z" fill="#F7BF30"/>
<path d="M220.56 243.052H215.786V255.183H220.56V243.052Z" fill="#FFC234"/>
<path d="M215.939 225.862C237.206 225.862 254.447 219.399 254.447 211.427C254.447 203.455 237.206 196.992 215.939 196.992C194.673 196.992 177.434 203.455 177.434 211.427C177.434 219.399 194.673 225.862 215.939 225.862Z" fill="#FFCE5B"/>
<path d="M177.434 223.555C177.434 231.54 194.684 237.99 215.939 237.99C237.194 237.99 254.447 231.54 254.447 223.555V211.424C254.447 219.409 237.194 225.858 215.939 225.858C194.684 225.858 177.434 219.409 177.434 211.424V223.555Z" fill="#FFE7AD"/>
<path d="M215.94 225.858H211.165V237.989H215.94V225.858Z" fill="#FFC234"/>
<path d="M223.642 210.509C244.908 210.509 262.147 204.046 262.147 196.074C262.147 188.102 244.908 181.639 223.642 181.639C202.376 181.639 185.136 188.102 185.136 196.074C185.136 204.046 202.376 210.509 223.642 210.509Z" fill="#FFCE5B"/>
<path d="M185.136 208.203C185.136 216.188 202.386 222.637 223.642 222.637C244.897 222.637 262.147 216.188 262.147 208.203V196.071C262.147 204.056 244.897 210.506 223.642 210.506C202.386 210.506 185.136 204.056 185.136 196.071V208.203Z" fill="#FFE7AD"/>
<path d="M209.779 209.585C195.301 207.435 185.136 202.214 185.136 196.071V208.203C185.136 214.345 195.301 219.566 209.779 221.716V209.585Z" fill="#F7BF30"/>
<path d="M223.642 210.504H218.867V222.635H223.642V210.504Z" fill="#FFC234"/>
<path d="M212.859 196.079C234.125 196.079 251.365 189.616 251.365 181.643C251.365 173.671 234.125 167.209 212.859 167.209C191.593 167.209 174.354 173.671 174.354 181.643C174.354 189.616 191.593 196.079 212.859 196.079Z" fill="#FFCE5B"/>
<path d="M174.354 193.771C174.354 201.757 191.604 208.206 212.859 208.206C234.114 208.206 251.365 201.757 251.365 193.771V181.64C251.365 189.625 234.114 196.075 212.859 196.075C191.604 196.075 174.354 189.625 174.354 181.64V193.771Z" fill="#FFE7AD"/>
<path d="M198.997 195.154C184.519 193.005 174.354 187.783 174.354 181.641V193.772C174.354 199.915 184.519 205.136 198.997 207.286V195.154Z" fill="#F7BF30"/>
<path d="M212.859 196.074H208.084V208.205H212.859V196.074Z" fill="#FFC234"/>
<path d="M217.48 180.726C238.746 180.726 255.986 174.263 255.986 166.291C255.986 158.319 238.746 151.856 217.48 151.856C196.214 151.856 178.974 158.319 178.974 166.291C178.974 174.263 196.214 180.726 217.48 180.726Z" fill="#FFCE5B"/>
<path d="M217.48 158.614C232.574 158.614 245.05 162.146 246.591 166.599C246.744 166.292 246.744 165.985 246.744 165.678C246.744 160.764 233.653 156.771 217.48 156.771C201.308 156.771 188.216 160.764 188.216 165.678C188.216 165.985 188.216 166.292 188.37 166.599C189.756 162.146 202.232 158.614 217.48 158.614Z" fill="#FFE7AD"/>
<path d="M178.974 178.419C178.974 186.404 196.225 192.854 217.48 192.854C238.735 192.854 255.986 186.404 255.986 178.419V166.288C255.986 174.273 238.735 180.723 217.48 180.723C196.225 180.723 178.974 174.273 178.974 166.288V178.419Z" fill="#FFE7AD"/>
<path d="M203.618 179.801C189.139 177.651 178.974 172.43 178.974 166.288V178.419C178.974 184.562 189.139 189.783 203.618 191.933V179.801Z" fill="#F7BF30"/>
<path d="M246.744 165.677C246.744 170.591 233.653 174.584 217.48 174.584C201.308 174.584 188.216 170.591 188.216 165.677C188.216 160.763 201.308 156.77 217.48 156.77C233.653 156.77 246.744 160.763 246.744 165.677Z" fill="#FFE7AD"/>
<path d="M217.481 180.721H212.706V192.852H217.481V180.721Z" fill="#FFC234"/>
<path d="M213.938 163.835L214.092 160.303H212.09C211.32 160.303 210.704 160.303 210.087 160.456C209.471 160.61 208.855 160.61 208.393 160.764C207.469 161.071 206.853 161.532 206.699 161.992C206.545 162.913 208.855 163.835 211.782 163.835H213.938Z" fill="#FFE7AD"/>
<path d="M218.251 169.208H223.487C226.568 169.208 229.032 168.287 228.878 167.212C228.724 166.598 227.8 165.984 226.26 165.676C225.335 165.523 224.257 165.369 223.179 165.369H218.096L218.251 169.208Z" fill="#FFE7AD"/>
<path d="M201.462 167.827C201.154 169.517 204.696 170.899 209.471 170.899H213.63L213.476 173.049H218.25V170.899H223.641C229.34 170.899 233.807 169.209 233.499 167.213C233.191 165.37 228.57 163.835 223.179 163.835H218.25V160.303H220.869C222.409 160.303 223.949 160.61 224.719 160.917C225.181 161.224 225.49 161.378 225.644 161.839H229.802C229.648 160.303 225.49 159.074 220.869 158.921H218.25V157.539H214.092V158.921H212.09C207.007 158.921 202.694 160.303 202.386 161.992C202.078 163.681 206.236 165.217 211.627 165.217H213.784L213.63 169.056H209.625C207.469 169.056 205.775 168.442 205.929 167.674H201.462V167.827ZM226.26 165.678C227.8 165.985 228.724 166.599 228.878 167.213C229.032 168.288 226.567 169.209 223.487 169.209H218.25V165.37H223.333C224.257 165.37 225.335 165.524 226.26 165.678ZM206.699 162.146C206.699 161.685 207.315 161.224 208.393 160.917C208.855 160.764 209.471 160.61 210.087 160.61C210.703 160.456 211.319 160.456 212.09 160.456H214.092L213.938 163.988H211.936C208.855 163.835 206.545 163.067 206.699 162.146Z" fill="#FFC234"/>
<path d="M122.913 288.185C144.179 288.185 161.419 281.723 161.419 273.751C161.419 265.778 144.179 259.316 122.913 259.316C101.647 259.316 84.4072 265.778 84.4072 273.751C84.4072 281.723 101.647 288.185 122.913 288.185Z" fill="#FFCE5B"/>
<path d="M84.4072 285.881C84.4072 293.867 101.658 300.315 122.913 300.315C144.168 300.315 161.419 293.867 161.419 285.881V273.75C161.419 281.735 144.168 288.185 122.913 288.185C101.658 288.185 84.4072 281.735 84.4072 273.75V285.881Z" fill="#FFE7AD"/>
<path d="M109.051 287.265C94.5729 285.113 84.4072 279.892 84.4072 273.75V285.881C84.4072 292.023 94.5729 297.246 109.051 299.395V287.265Z" fill="#F7BF30"/>
<path d="M122.913 288.184H118.139V300.315H122.913V288.184Z" fill="#FFC234"/>
<path d="M121.373 272.829C142.639 272.829 159.879 266.367 159.879 258.394C159.879 250.422 142.639 243.959 121.373 243.959C100.107 243.959 82.8672 250.422 82.8672 258.394C82.8672 266.367 100.107 272.829 121.373 272.829Z" fill="#FFCE5B"/>
<path d="M82.8672 270.526C82.8672 278.511 100.118 284.961 121.373 284.961C142.628 284.961 159.879 278.511 159.879 270.526V258.394C159.879 266.379 142.628 272.829 121.373 272.829C100.118 272.829 82.8672 266.379 82.8672 258.394V270.526Z" fill="#FFE7AD"/>
<path d="M107.511 271.908C93.0325 269.758 82.8672 264.537 82.8672 258.394V270.526C82.8672 276.668 93.0325 281.89 107.511 284.039V271.908Z" fill="#F7BF30"/>
<path d="M121.373 272.829H116.599V284.96H121.373V272.829Z" fill="#FFC234"/>
<path d="M130.612 258.408C151.878 258.408 169.118 251.945 169.118 243.973C169.118 236.001 151.878 229.538 130.612 229.538C109.346 229.538 92.1069 236.001 92.1069 243.973C92.1069 251.945 109.346 258.408 130.612 258.408Z" fill="#FFCE5B"/>
<path d="M92.1069 256.091C92.1069 264.076 109.357 270.526 130.612 270.526C151.868 270.526 169.118 264.076 169.118 256.091V243.959C169.118 251.945 151.868 258.394 130.612 258.394C109.357 258.394 92.1069 251.945 92.1069 243.959V256.091Z" fill="#FFE7AD"/>
<path d="M116.751 257.473C102.272 255.323 92.1069 250.102 92.1069 243.959V256.091C92.1069 262.233 102.272 267.454 116.751 269.604V257.473Z" fill="#F7BF30"/>
<path d="M130.613 258.394H125.839V270.526H130.613V258.394Z" fill="#FFC234"/>
<path d="M122.913 243.056C144.179 243.056 161.419 236.593 161.419 228.621C161.419 220.648 144.179 214.186 122.913 214.186C101.647 214.186 84.4072 220.648 84.4072 228.621C84.4072 236.593 101.647 243.056 122.913 243.056Z" fill="#FFCE5B"/>
<path d="M84.4072 240.749C84.4072 248.735 101.658 255.184 122.913 255.184C144.168 255.184 161.419 248.735 161.419 240.749V228.618C161.419 236.603 144.168 243.053 122.913 243.053C101.658 243.053 84.4072 236.603 84.4072 228.618V240.749Z" fill="#FFE7AD"/>
<path d="M109.051 242.131C94.5729 239.982 84.4072 234.76 84.4072 228.618V240.749C84.4072 246.892 94.5729 252.113 109.051 254.263V242.131Z" fill="#F7BF30"/>
<path d="M122.913 243.052H118.139V255.183H122.913V243.052Z" fill="#FFC234"/>
<path d="M129.073 227.55C150.34 227.55 167.579 221.088 167.579 213.115C167.579 205.143 150.34 198.68 129.073 198.68C107.807 198.68 90.5679 205.143 90.5679 213.115C90.5679 221.088 107.807 227.55 129.073 227.55Z" fill="#FFCE5B"/>
<path d="M90.5669 225.243C90.5669 233.228 107.817 239.678 129.072 239.678C150.328 239.678 167.578 233.228 167.578 225.243V213.111C167.578 221.097 150.328 227.547 129.072 227.547C107.817 227.547 90.5669 221.097 90.5669 213.111V225.243Z" fill="#FFE7AD"/>
<path d="M115.211 226.625C100.732 224.475 90.5669 219.254 90.5669 213.111V225.243C90.5669 231.386 100.732 236.607 115.211 238.757V226.625Z" fill="#F7BF30"/>
<path d="M129.074 227.546H124.299V239.677H129.074V227.546Z" fill="#FFC234"/>
<path d="M125.993 210.663C147.259 210.663 164.499 204.2 164.499 196.228C164.499 188.256 147.259 181.793 125.993 181.793C104.727 181.793 87.4873 188.256 87.4873 196.228C87.4873 204.2 104.727 210.663 125.993 210.663Z" fill="#FFCE5B"/>
<path d="M87.4873 208.357C87.4873 216.342 104.738 222.791 125.993 222.791C147.248 222.791 164.499 216.342 164.499 208.357V196.225C164.499 204.21 147.248 210.66 125.993 210.66C104.738 210.66 87.4873 204.21 87.4873 196.225V208.357Z" fill="#FFE7AD"/>
<path d="M112.131 209.739C97.653 207.589 87.4873 202.368 87.4873 196.225V208.357C87.4873 214.499 97.653 219.72 112.131 221.87V209.739Z" fill="#F7BF30"/>
<path d="M125.994 210.658H121.219V222.789H125.994V210.658Z" fill="#FFC234"/>
<path d="M124.452 194.081C145.718 194.081 162.957 187.619 162.957 179.646C162.957 171.674 145.718 165.212 124.452 165.212C103.186 165.212 85.9458 171.674 85.9458 179.646C85.9458 187.619 103.186 194.081 124.452 194.081Z" fill="#FFCE5B"/>
<path d="M85.9458 191.775C85.9458 199.76 103.196 206.21 124.452 206.21C145.707 206.21 162.957 199.76 162.957 191.775V179.643C162.957 187.629 145.707 194.078 124.452 194.078C103.196 194.078 85.9458 187.629 85.9458 179.643V191.775Z" fill="#FFE7AD"/>
<path d="M110.589 193.157C96.1115 191.007 85.9458 185.786 85.9458 179.643V191.775C85.9458 197.917 96.1115 203.138 110.589 205.288V193.157Z" fill="#F7BF30"/>
<path d="M124.452 194.077H119.677V206.209H124.452V194.077Z" fill="#FFC234"/>
<path d="M130.306 178.884C151.572 178.884 168.812 172.421 168.812 164.449C168.812 156.477 151.572 150.014 130.306 150.014C109.04 150.014 91.8008 156.477 91.8008 164.449C91.8008 172.421 109.04 178.884 130.306 178.884Z" fill="#FFCE5B"/>
<path d="M91.8008 176.423C91.8008 184.408 109.051 190.857 130.306 190.857C151.562 190.857 168.812 184.408 168.812 176.423V164.291C168.812 172.276 151.562 178.726 130.306 178.726C109.051 178.726 91.8008 172.276 91.8008 164.291V176.423Z" fill="#FFE7AD"/>
<path d="M116.444 177.805C101.966 175.654 91.8008 170.433 91.8008 164.291V176.423C91.8008 182.565 101.966 187.786 116.444 189.936V177.805Z" fill="#F7BF30"/>
<path d="M130.46 178.726H125.686V190.857H130.46V178.726Z" fill="#FFC234"/>
<path d="M136.775 164.299C158.041 164.299 175.28 157.836 175.28 149.864C175.28 141.892 158.041 135.429 136.775 135.429C115.509 135.429 98.269 141.892 98.269 149.864C98.269 157.836 115.509 164.299 136.775 164.299Z" fill="#FFCE5B"/>
<path d="M98.269 161.992C98.269 169.977 115.52 176.427 136.775 176.427C158.03 176.427 175.28 169.977 175.28 161.992V149.861C175.28 157.846 158.03 164.296 136.775 164.296C115.52 164.296 98.269 157.846 98.269 149.861V161.992Z" fill="#FFE7AD"/>
<path d="M122.913 163.374C108.435 161.224 98.269 156.003 98.269 149.861V161.992C98.269 168.135 108.435 173.356 122.913 175.506V163.374Z" fill="#F7BF30"/>
<path d="M136.775 164.293H132V176.425H136.775V164.293Z" fill="#FFC234"/>
<path d="M129.072 149.101C150.338 149.101 167.578 142.638 167.578 134.665C167.578 126.693 150.338 120.231 129.072 120.231C107.806 120.231 90.5664 126.693 90.5664 134.665C90.5664 142.638 107.806 149.101 129.072 149.101Z" fill="#FFCE5B"/>
<path d="M129.073 126.989C144.167 126.989 156.642 130.521 158.183 134.974C158.337 134.667 158.337 134.36 158.337 134.053C158.337 129.139 145.245 125.146 129.073 125.146C112.9 125.146 99.8081 129.139 99.8081 134.053C99.8081 134.36 99.8081 134.667 99.9621 134.974C101.502 130.521 113.978 126.989 129.073 126.989Z" fill="#FFE7AD"/>
<path d="M90.5664 146.639C90.5664 154.625 107.817 161.075 129.072 161.075C150.327 161.075 167.578 154.625 167.578 146.639V134.508C167.578 142.493 150.327 148.943 129.072 148.943C107.817 148.943 90.5664 142.493 90.5664 134.508V146.639Z" fill="#FFE7AD"/>
<path d="M115.21 148.022C100.732 145.872 90.5664 140.651 90.5664 134.508V146.639C90.5664 152.782 100.732 158.003 115.21 160.153V148.022Z" fill="#F7BF30"/>
<path d="M158.337 134.052C158.337 138.966 145.245 142.959 129.073 142.959C112.9 142.959 99.8081 138.966 99.8081 134.052C99.8081 129.138 112.9 125.146 129.073 125.146C145.245 124.992 158.337 128.985 158.337 134.052Z" fill="#FFE7AD"/>
<path d="M129.073 148.942H124.298V161.074H129.073V148.942Z" fill="#FFC234"/>
<path d="M145.708 135.893C145.708 135.74 145.708 135.586 145.708 135.433C145.553 134.05 144.013 133.129 142.011 132.515C142.011 132.054 142.011 131.133 142.011 130.672C142.011 130.519 142.011 130.365 142.011 130.365C141.703 128.062 136.928 126.833 132.308 126.833H130.459V126.219C130.459 125.758 130.151 125.451 129.689 125.451H125.685C125.222 125.451 124.914 125.758 124.914 126.219V126.833H123.682C118.754 126.833 113.671 128.062 113.209 130.519C113.209 130.672 113.209 130.826 113.209 130.979C113.209 130.979 113.209 130.979 113.209 131.133V133.283C113.209 133.743 113.209 134.204 113.671 134.819C113.979 135.125 114.287 135.433 114.749 135.586H112.901C112.747 135.586 112.747 135.586 112.593 135.586C112.593 135.586 112.439 135.586 112.439 135.74C112.439 135.74 112.439 135.74 112.284 135.893C112.284 135.893 112.284 135.893 112.13 136.047C112.13 136.047 112.13 136.2 111.977 136.2C111.977 136.354 111.977 136.507 111.977 136.661V138.811C111.977 139.272 111.977 139.733 112.439 140.347C113.671 141.729 116.905 142.65 120.756 142.65H123.99V144.032C123.99 144.493 124.298 144.8 124.761 144.8H129.535C129.997 144.8 130.305 144.493 130.305 144.032V142.65H134.772C139.547 142.65 144.783 141.421 145.245 138.811C145.245 138.811 145.245 138.657 145.245 138.504C145.708 138.35 145.708 137.736 145.708 135.893ZM121.218 137.429H125.222L125.377 133.59H123.22C117.829 133.59 113.671 132.054 113.979 130.365C114.287 128.676 118.6 127.294 123.682 127.294H125.685V125.912H129.689V127.294H132.308C137.082 127.294 141.087 128.522 141.241 130.211H137.082C137.082 129.904 136.774 129.597 136.158 129.29C135.234 128.829 133.848 128.676 132.308 128.676H129.689V132.208H134.618C140.009 132.208 144.475 133.743 144.937 135.586C145.245 137.582 140.933 139.272 135.08 139.272H129.689V141.421H124.914L125.068 139.272H120.91C116.135 139.272 112.593 137.89 112.901 136.2H117.367C117.521 136.815 119.061 137.429 121.218 137.429Z" fill="#FFE7AD"/>
<path d="M125.532 132.055L125.686 128.523H123.683C122.913 128.523 122.297 128.523 121.681 128.677C121.065 128.831 120.449 128.83 119.987 128.984C119.063 129.291 118.447 129.752 118.292 130.212C118.138 131.134 120.449 132.055 123.375 132.055H125.532Z" fill="#FFE7AD"/>
<path d="M129.844 137.429H135.08C138.161 137.429 140.625 136.507 140.471 135.432C140.317 134.818 139.393 134.204 137.853 133.896C136.929 133.743 135.85 133.59 134.772 133.59H129.689L129.844 137.429Z" fill="#FFE7AD"/>
<path d="M113.054 136.048C112.746 137.738 116.289 139.12 121.064 139.12H125.222L125.068 141.27H129.843V139.12H135.234C140.932 139.12 145.399 137.43 145.091 135.434C144.783 133.591 140.162 132.056 134.771 132.056H129.843V128.524H132.461C134.001 128.524 135.541 128.831 136.311 129.138C136.774 129.445 137.082 129.599 137.236 130.059H141.395C141.24 128.524 137.082 127.295 132.461 127.142H129.843V125.76H125.838V127.142H123.836C118.753 127.142 114.44 128.524 114.132 130.213C113.824 131.902 117.983 133.438 123.374 133.438H125.53L125.376 137.277H121.371C119.215 137.277 117.521 136.663 117.675 135.895H113.054V136.048ZM137.852 133.899C139.392 134.206 140.316 134.82 140.47 135.434C140.624 136.509 138.16 137.43 135.079 137.43H129.843V133.591H134.925C136.004 133.591 137.082 133.745 137.852 133.899ZM118.291 130.367C118.291 129.906 118.907 129.445 119.985 129.138C120.447 128.985 121.064 128.831 121.68 128.831C122.296 128.677 122.912 128.677 123.682 128.677H125.684L125.53 132.209H123.528C120.447 132.056 118.137 131.288 118.291 130.367Z" fill="#FFC234"/>
<path d="M226.944 301.773L213.185 305.641C212.952 305.703 212.694 305.678 212.469 305.589L209.54 304.463C209.256 304.342 208.943 304.481 208.823 304.765L207.967 306.704C207.8 307.002 207.514 307.234 207.162 307.231C205.736 307.334 202.014 307.477 201.559 306.406C201.02 305.206 201.642 298.177 201.434 295.133C203.149 296.053 206.568 297.04 211.52 294.497C212.505 295.321 214.524 296.708 218.21 297.323C224.123 298.365 227.789 299.082 228.564 299.517C229.339 299.951 229.268 301.121 226.944 301.773Z" fill="black"/>
<path d="M211.046 254.412C213.4 269.659 212.763 290.3 212.625 293.539C212.598 293.797 212.477 294.08 212.211 294.205C211.946 294.33 211.739 294.489 211.474 294.614C206.522 297.157 203.103 296.064 201.375 295.099C201.018 294.901 200.766 294.72 200.574 294.573C200.323 294.397 200.198 294.132 200.165 293.841C200.068 291.364 198.962 283.372 195.637 270.899C192.062 257.546 181.622 240.319 173.956 228.465C166.29 216.612 159.881 207.608 152.954 193.045C147.614 181.789 146.831 168.902 146.501 160.99C146.44 159.357 146.864 157.837 147.691 156.504C154.298 156.448 163.559 154.596 176.079 150.427C177.368 150.015 178.643 149.556 179.965 149.085C182.153 154.873 186.243 170.583 190.543 185.083C192.667 192.24 194.805 199.094 196.824 204.28C203.455 221.526 208.479 237.874 211.046 254.412Z" fill="#232533"/>
<path d="M152.954 193.065C159.881 207.628 166.29 216.633 173.956 228.486C178.971 236.239 185.173 246.293 189.863 256.057C184.09 226.246 180.829 209.175 177.744 182.081C175.344 161.011 172.268 154.37 171.469 151.923C161.251 155.057 153.46 156.475 147.691 156.524C146.864 157.857 146.44 159.377 146.501 161.011C146.831 168.922 147.614 181.809 152.954 193.065Z" fill="#151518"/>
<path d="M181.58 311H167.285C167.043 311 166.802 310.904 166.609 310.76L164.097 308.88C163.856 308.688 163.518 308.736 163.324 308.975L161.972 310.613C161.731 310.856 161.393 311 161.055 310.904C159.654 310.613 156.032 309.748 155.887 308.593C155.694 307.294 158.205 300.695 158.833 297.71C160.234 299.057 163.242 300.941 168.7 299.833C169.424 300.893 171.004 302.767 174.384 304.353C179.793 306.955 183.125 308.641 183.753 309.266C184.381 309.892 183.995 311 181.58 311Z" fill="black"/>
<path d="M179.165 261.115C177.281 276.427 171.052 296.12 170.037 299.204C169.941 299.443 169.748 299.682 169.458 299.73C169.168 299.782 168.926 299.877 168.637 299.925C163.179 301.033 160.185 299.057 158.785 297.662C158.495 297.371 158.301 297.132 158.157 296.94C157.963 296.697 157.915 296.41 157.964 296.12C158.543 293.713 159.654 285.72 159.847 272.816C160.04 258.996 154.68 239.591 150.526 226.109C146.373 212.627 142.654 202.226 139.949 186.337C137.873 174.058 140.626 161.443 142.461 153.739C142.847 152.149 143.668 150.801 144.827 149.742C151.202 151.476 160.62 152.198 173.804 151.572C175.157 151.523 176.509 151.427 177.909 151.331C178.441 157.494 178.102 173.721 178.296 188.84C178.392 196.304 178.586 203.478 179.117 209.016C180.807 227.409 181.194 244.503 179.165 261.115Z" fill="#232533"/>
<path d="M179.02 152.681C179.02 152.729 179.02 152.825 179.02 152.874C169.554 154.126 165.063 153.163 162.938 151.959C162.938 151.911 162.938 151.863 162.986 151.814C165.739 139.728 170.858 122.924 170.858 112.62C170.858 103.278 170.52 91.1448 164.435 80.9366C164.628 80.8405 164.821 80.6959 165.014 80.6477C167.478 79.4442 170.52 79.9738 173.659 80.7923C180.855 87.7743 182.401 94.756 182.594 110.501C182.787 128.028 179.89 143.581 179.02 152.681Z" fill="#F4F7FF"/>
<path d="M170.858 112.616C170.858 122.921 165.739 139.725 162.986 151.811C162.986 151.859 162.986 151.908 162.937 151.955C161.344 158.986 160.764 166.16 160.523 170.927C160.426 172.997 160.378 174.586 160.378 175.549C160.378 176.079 159.943 176.464 159.412 176.416C155.935 176.079 143.62 173.961 133.236 161.152C132.898 160.719 132.898 160.141 133.188 159.708C135.216 156.771 142.508 145.07 143.185 128.747C144.006 109.776 139.369 102.023 144.585 95.2342C146.614 94.3675 156.128 86.3262 162.068 82.378C162.937 81.8 163.71 81.3186 164.386 80.9333C170.52 91.0934 170.858 103.275 170.858 112.616Z" fill="#0066FF"/>
<path d="M193.025 155.857C189.886 161.876 186.409 167.558 183.366 171.265C183.125 171.554 182.642 171.506 182.449 171.121C181.435 168.569 178.44 160.383 179.068 152.872C179.068 152.776 179.068 152.727 179.068 152.679C179.889 143.579 182.787 128.026 182.593 110.499C182.4 94.7536 180.855 87.772 173.659 80.79C175.446 81.2714 177.281 81.801 179.02 82.1381C180.034 82.3309 181 82.4752 181.918 82.5234C195.585 90.9018 193.943 113.292 193.943 113.292C193.943 113.292 196.309 149.453 193.025 155.857Z" fill="#0066FF"/>
<path d="M170.859 112.617C170.859 122.922 165.739 139.726 162.986 151.812C162.986 151.86 162.986 151.908 162.938 151.956C161.344 158.987 160.765 166.161 160.523 170.928C159.992 145.89 156.756 133.515 155.597 129.855C155.356 129.133 155.549 128.315 156.128 127.785L163.517 120.803C164.145 120.177 164.29 119.214 163.807 118.492L160.137 112.666C159.751 112.04 159.702 111.221 160.04 110.547C169.023 93.2125 162.117 82.3787 162.117 82.3787C162.986 81.8008 163.759 81.3194 164.435 80.9341C170.52 91.0941 170.859 103.276 170.859 112.617Z" fill="#418DFF"/>
<path d="M186.988 124.173C189.21 132.552 186.988 139.437 184.767 148.538C182.545 157.639 182.4 171.169 182.4 171.169C181.386 168.617 178.392 160.431 179.02 152.92C179.02 152.823 179.02 152.775 179.02 152.727C179.841 143.627 182.739 128.074 182.545 110.547C182.352 94.8017 180.807 87.8197 173.611 80.8381C175.397 81.3195 177.233 81.8491 178.971 82.1862C183.946 89.3607 188.486 104.913 189.452 108.476C189.596 108.91 189.5 109.391 189.21 109.777C188.099 111.317 185.346 115.314 185.105 117.24C184.912 119.551 184.815 115.747 186.988 124.173Z" fill="#418DFF"/>
<path d="M269.766 35.8932L256.629 55.8275C256.389 56.2129 256.485 56.6943 256.872 56.9349L263.052 60.9797C263.439 61.2204 263.923 61.1243 264.163 60.739L277.3 40.8047C277.54 40.4193 277.444 39.9379 277.06 39.6972L270.877 35.6525C270.538 35.4118 270.006 35.5079 269.766 35.8932Z" fill="#F7A120"/>
<path d="M268.656 40.2749L260.254 53.0348C259.914 53.5644 260.058 54.2386 260.59 54.6239L263.779 56.7424C264.311 57.0795 264.986 56.9352 265.374 56.4052L273.776 43.6454C274.115 43.1158 273.968 42.4416 273.44 42.0566L270.25 39.9378C269.671 39.6489 268.995 39.7932 268.656 40.2749Z" fill="#FFFFFE"/>
<path d="M265.373 38.734L257.499 50.6753C257.26 51.0607 257.355 51.5421 257.739 51.7831L258.85 52.5052L267.592 39.2154L266.481 38.4933C266.097 38.2526 265.613 38.3487 265.373 38.734Z" fill="#D3840E"/>
<path d="M254.842 17.9806C256.1 9.1209 254.989 4.1134 251.172 1.60965C249.821 0.742926 248.131 -0.364862 245.909 0.116897C243.59 0.646501 241.224 2.86134 238.52 7.00248L240.258 8.1099C242.624 4.49837 244.701 2.47638 246.44 2.09104C247.695 1.80213 248.71 2.37995 250.109 3.29489C251.992 4.54658 254.31 7.3396 252.863 17.6439C252.719 18.8473 253.103 20.0512 253.926 20.8697L253.974 20.9179C254.07 21.4475 254.362 21.9771 254.89 22.3142C255.857 22.9403 257.112 22.6514 257.739 21.7364C258.367 20.7737 258.079 19.5216 257.16 18.8956C256.484 18.4624 255.665 18.4624 255.037 18.8474C254.842 18.6067 254.794 18.3177 254.842 17.9806Z" fill="#F7A120"/>
<path d="M234.221 49.279C226.59 53.9497 221.471 54.9129 217.704 52.457C216.352 51.5902 214.661 50.4828 214.275 48.2198C213.84 45.9085 214.951 42.8751 217.656 38.6858L219.394 39.7932C217.028 43.4047 215.965 46.101 216.304 47.8344C216.545 49.1347 217.463 49.8086 218.863 50.7235C220.747 51.9756 224.272 52.9384 233.158 47.5455C234.173 46.9195 235.477 46.8234 236.539 47.2566C236.539 47.2566 236.587 47.2566 236.587 47.3048C237.119 47.1606 237.746 47.2566 238.229 47.5937C239.195 48.2198 239.437 49.4715 238.809 50.4346C238.181 51.3978 236.926 51.6385 235.959 51.0124C235.284 50.5792 234.945 49.8086 235.042 49.0865C234.8 49.0383 234.511 49.1347 234.221 49.279Z" fill="#F7A120"/>
<path d="M236.298 5.60613L246.778 12.4435C251.172 15.3326 253.974 19.6662 254.941 24.433C255.181 25.6851 255.325 26.9368 255.325 28.1888C255.325 32.6185 257.643 36.6632 261.364 39.1191L264.018 40.8526L258.946 48.5567L256.292 46.8232C252.571 44.3673 247.887 43.9823 243.735 45.7158C238.085 48.0749 231.42 47.6899 225.962 44.0784L215.483 37.241C214.227 36.4225 217.897 28.6702 223.644 19.9551C229.343 11.1914 235.042 4.78762 236.298 5.60613Z" fill="#F7A120"/>
<path d="M228.159 22.9302C233.913 14.1942 237.565 6.44958 236.317 5.63217C235.068 4.81476 229.392 11.2341 223.638 19.9701C217.884 28.7062 214.232 36.4508 215.481 37.2682C216.729 38.0856 222.406 31.6663 228.159 22.9302Z" fill="#D3850E"/>
<path d="M244.218 31.2221L243.252 32.6666L234.028 26.5995C233.255 26.1182 232.531 25.5886 231.903 25.1068C231.951 25.2996 232 25.5403 232 25.781C232.048 26.0217 232.144 27.0813 232.337 29.0072L230.792 29.1037L230.406 23.9515L231.227 22.6995L244.218 31.2221Z" fill="#F0EEF5"/>
<path d="M227.218 22.3142C222.437 29.5851 218.718 33.8223 216.835 35.4594C216.69 35.5558 216.545 35.4594 216.593 35.3151C217.366 32.9556 219.78 27.8517 224.562 20.5808C229.343 13.3102 233.062 9.07302 234.945 7.43563C235.09 7.33957 235.235 7.43562 235.187 7.58026C234.414 9.93974 231.999 15.0437 227.218 22.3142Z" fill="#F7A120"/>
<path d="M205.471 54.5626C204.308 56.0016 202.68 57.4848 200.403 58.5778C199.38 59.0673 198.229 59.4795 196.929 59.774C193.673 60.51 188.254 60.7235 185.999 60.7787C185.423 60.7934 184.962 61.2645 184.962 61.8386V67.0427C184.962 67.4733 184.611 67.8192 184.183 67.8192H182.463C182.034 67.8192 181.687 67.4733 181.684 67.0463C181.669 65.887 181.44 63.7009 180.052 62.4312C178.103 60.6425 176.416 61.2203 176.047 62.9575C175.678 64.6909 174.94 68.7393 174.622 71.4223C174.305 74.1016 173.126 77.2108 169.449 78.3296C167.194 72.2165 163.389 62.4312 163.496 56.0163C163.6 49.6014 163.389 44.2391 168.454 40.6655C173.515 37.0882 181.691 40.9783 184.962 40.6655C188.229 40.349 191.865 36.4589 193.555 35.6161C195.242 34.7769 200.938 35.9326 203.784 40.349C206.63 44.7654 207.158 52.4795 205.471 54.5626Z" fill="#383852"/>
<path d="M185.492 74.6865C185.395 75.0718 185.105 75.4089 184.671 75.505C183.367 75.6979 180.372 76.0828 177.523 75.5532C177.185 75.505 176.847 75.7461 176.847 76.131V82.7373L174.142 85.4339C173.901 85.6746 173.466 85.7228 173.177 85.5299L167.285 81.5817V72.7125C167.285 72.7125 165.401 69.8233 166.657 67.5602C167.574 65.875 169.844 66.79 170.907 67.3677C171.148 67.512 171.486 67.3195 171.438 67.0307C171.293 65.2972 171.003 60.7711 171.486 58.6041C171.583 58.1227 172.162 57.882 172.597 58.1227C174.046 58.9412 177.62 60.6746 181.966 61.0117C183.077 61.1082 184.188 61.06 185.347 60.9153C185.588 64.2862 186.119 71.316 185.492 74.6865Z" fill="#FEBFAE"/>
<path d="M167.236 72.8552C167.236 72.8552 172.839 74.7329 175.35 75.07C175.736 75.1182 175.833 75.5996 175.543 75.7925C174.867 76.1774 172.887 76.5146 167.236 75.6478V72.8552Z" fill="#EDA895"/>
<path d="M155.5 119.211C153.085 126.964 144.537 135.92 140.529 139.242C136.52 142.564 130.435 150.75 126.716 157.491C124.398 161.68 121.259 167.844 119.182 171.985L109.668 168.662L108.847 168.277C108.268 167.988 108.075 167.314 108.316 166.784C109.717 163.895 113.677 155.517 115.56 150.461C117.83 144.25 120.824 134.138 124.254 124.123C127.682 114.059 132.27 105.633 137.486 99.5662C142.75 93.4991 151.975 93.6434 154.824 99.0844C157.673 104.429 157.915 111.411 155.5 119.211Z" fill="#0066FF"/>
<path d="M116.526 187.042C115.802 187.042 114.932 186.223 114.401 185.694C114.256 185.549 114.015 185.645 113.966 185.838C113.677 187.62 111.89 190.22 108.654 188.872C105.032 187.427 103.873 182.997 105.274 180.493C106.095 179.049 107.254 176.834 108.123 175.196C108.461 174.57 108.751 173.993 108.944 173.608C109.041 173.463 109.041 173.271 108.944 173.126L116.912 176.4C116.816 176.834 116.623 177.797 116.671 178.904C116.719 179.627 116.816 180.397 117.154 181.167C118.168 183.623 117.54 187.042 116.526 187.042Z" fill="#FEBFAE"/>
<path d="M119.182 171.925C117.927 174.429 117.057 176.162 117.057 176.162C117.057 176.162 117.009 176.259 116.961 176.451L108.992 173.177C108.944 173.033 108.847 172.936 108.751 172.888C108.268 172.599 108.074 171.925 108.316 171.396L109.668 168.603L119.182 171.925Z" fill="#A0B1F9"/>
<path d="M252.575 54.7044C252.575 54.7044 247.599 66.6939 238.423 77.2871C229.247 87.8803 212.682 104.926 193.943 113.304C193.943 113.304 195.585 90.914 181.918 82.5357C182.208 82.5357 182.498 82.5357 182.787 82.5357C188.389 82.1986 204.954 79.9837 217.656 73.3388C230.165 66.7904 239.872 59.2305 243.156 50.8522C243.252 50.6115 243.494 50.4672 243.784 50.5154C243.929 50.5633 244.122 50.5633 244.315 50.6115C246.005 50.9004 249.725 52.0078 252.575 54.7044Z" fill="#0066FF"/>
<path d="M253.878 52.6488L252.575 54.7194C249.773 52.0228 246.054 50.9153 244.315 50.5786L245.813 47.9784C245.861 47.7374 246.15 47.6413 246.344 47.7856L253.782 52.0231C253.974 52.1192 254.022 52.4081 253.878 52.6488Z" fill="#A0B1F9"/>
<path d="M252.72 51.3973C253.735 51.1084 258.032 48.3154 257.548 47.4008C257.065 46.4859 250.981 43.741 250.498 43.0672C250.014 42.3929 250.885 41.8151 251.561 42.1522C252.236 42.4894 253.056 42.7783 253.395 42.3447C253.683 41.9115 254.071 41.4301 252.96 40.6595C251.849 39.8892 249.29 38.1075 248.323 39.0225C247.408 39.9374 246.779 40.9966 247.068 42.3447C247.36 43.6932 247.744 46.197 246.634 47.8822L252.72 51.3973Z" fill="#FEBFAE"/>
<path d="M260.01 42.7786L262.572 39.6967C262.908 39.2635 262.86 38.5893 262.428 38.2521C262.28 38.1079 262.088 38.0114 261.848 38.0114C261.653 37.9632 261.461 37.8672 261.413 37.6743C261.221 36.904 260.689 36.3744 259.914 36.278C259.77 36.278 259.626 36.1337 259.578 35.9891C259.335 35.3152 258.611 35.0745 258.031 34.9781C257.84 34.9299 257.692 34.8335 257.644 34.641C257.548 34.3038 257.308 34.0149 257.016 33.8225C256.533 33.4853 255.857 33.63 255.473 34.0631L253.203 36.7597C253.107 36.904 253.008 37.0487 253.008 37.1929C252.912 37.7225 252.912 38.8782 254.41 38.8299C254.65 38.8299 254.846 39.0228 254.894 39.2635C254.942 39.7931 255.23 40.3709 256.197 40.3709C256.389 40.3709 256.584 40.5156 256.632 40.7563C256.776 41.3823 257.356 41.8155 258.031 41.8155C258.223 41.8155 258.419 41.9119 258.467 42.1044C258.707 42.8747 259.626 43.2118 260.01 42.7786Z" fill="#FEBFAE"/>
<path d="M254.845 38.9749C254.893 39.0231 254.941 39.0231 254.989 39.0231C255.037 39.0231 255.133 39.0231 255.181 38.9267L257.983 35.0266C258.079 34.9302 258.031 34.7859 257.935 34.6895C257.839 34.5931 257.692 34.6413 257.596 34.7377L254.794 38.6378C254.698 38.7342 254.746 38.8785 254.845 38.9749Z" fill="#EDA895"/>
<path d="M256.632 40.611C256.58 40.611 256.532 40.611 256.484 40.5628C256.388 40.4667 256.34 40.3221 256.436 40.226L259.526 36.0849C259.626 35.9885 259.77 35.9403 259.866 36.0367C259.962 36.1331 260.01 36.2774 259.914 36.3738L256.824 40.5146C256.776 40.5628 256.68 40.611 256.632 40.611Z" fill="#EDA895"/>
<path d="M258.467 42.0081C258.419 42.0081 258.371 42.0081 258.323 41.9603C258.223 41.8639 258.223 41.7196 258.271 41.6232L261.365 37.8192C261.46 37.7227 261.604 37.7227 261.7 37.771C261.8 37.8192 261.796 38.0117 261.748 38.1081L258.659 41.9121C258.611 42.0085 258.515 42.0081 258.467 42.0081Z" fill="#EDA895"/>
</svg>
