<svg width="20" height="19" viewBox="0 0 20 19" fill="none" xmlns="http://www.w3.org/2000/svg">
<path fill-rule="evenodd" clip-rule="evenodd" d="M0 6C0 2.6863 2.686 0 6 0H14C17.314 0 20 2.6863 20 6V13C20 16.3137 17.314 19 14 19H6C2.686 19 0 16.3137 0 13V6ZM6 1.5H14C16.485 1.5 18.5 3.5147 18.5 6V6.1845H15.987C13.897 6.1845 12.204 7.8781 12.204 9.9673C12.204 12.0564 13.897 13.75 15.987 13.75H18.438C18.081 15.8783 16.23 17.5 14 17.5H6C3.515 17.5 1.5 15.4853 1.5 13V6C1.5 3.5147 3.515 1.5 6 1.5ZM18.5 12.25V7.6845H15.987C14.726 7.6845 13.704 8.7066 13.704 9.9673C13.704 11.228 14.726 12.25 15.987 12.25H18.5Z" fill="#8B8B94"/>
</svg>
