<svg width="22" height="22" viewBox="0 0 22 22" fill="none" xmlns="http://www.w3.org/2000/svg">
<g clip-path="url(#clip0_1_6392)">
<path d="M7.3335 9.16667V6.41667C7.3335 4.39175 8.97525 2.75 11.0002 2.75C13.0251 2.75 14.6668 4.39175 14.6668 6.41667V9.16667" stroke="#A2A2A7" stroke-width="1.3" stroke-linecap="round" stroke-linejoin="round"/>
<path d="M15.5835 19.2501H6.41683C5.40391 19.2501 4.5835 18.4297 4.5835 17.4167V11.0001C4.5835 9.98716 5.40391 9.16675 6.41683 9.16675H15.5835C16.5964 9.16675 17.4168 9.98716 17.4168 11.0001V17.4167C17.4168 18.4297 16.5964 19.2501 15.5835 19.2501Z" stroke="#A2A2A7" stroke-width="1.3" stroke-linecap="round" stroke-linejoin="round"/>
<path d="M8.25019 14.2458C8.24744 14.2458 8.24561 14.2477 8.24561 14.2504C8.24561 14.2532 8.24744 14.255 8.25019 14.255C8.25294 14.255 8.25477 14.2532 8.25477 14.2504C8.25477 14.2477 8.25294 14.2458 8.25019 14.2458Z" stroke="#A2A2A7" stroke-width="1.5" stroke-linecap="round" stroke-linejoin="round"/>
<path d="M11.0046 14.2458C11.0018 14.2458 11 14.2477 11 14.2504C11 14.2532 11.0046 14.255 11.0046 14.255C11.0073 14.255 11.0092 14.2532 11.0092 14.2504C11.0092 14.2477 11.0073 14.2458 11.0046 14.2458Z" stroke="#A2A2A7" stroke-width="1.5" stroke-linecap="round" stroke-linejoin="round"/>
<path d="M13.7502 14.2458C13.7474 14.2458 13.7456 14.2477 13.7456 14.2504C13.7456 14.2532 13.7474 14.255 13.7502 14.255C13.7529 14.255 13.7548 14.2532 13.7548 14.2504C13.7548 14.2477 13.7529 14.2458 13.7502 14.2458Z" stroke="#A2A2A7" stroke-width="1.5" stroke-linecap="round" stroke-linejoin="round"/>
</g>
<defs>
<clipPath id="clip0_1_6392">
<rect width="22" height="22" fill="white"/>
</clipPath>
</defs>
</svg>
