<svg width="49" height="11" viewBox="0 0 49 11" fill="none" xmlns="http://www.w3.org/2000/svg">
<path d="M0 0.111238V8.24555H0.921217V2.06541H1.00052L3.54249 8.24555H4.43218L6.97416 2.06541H7.05347V8.24555H7.97468V0.111238H6.79927L4.03462 6.86333H3.94006L1.17541 0.111238H0ZM10.4272 10.5333C11.2731 10.5333 11.869 10.0845 12.2218 9.13524L14.8197 2.16068L13.7948 2.14482L12.111 7.00629H12.0469L10.3631 2.14482H9.34633L11.6026 8.27738L11.4277 8.75395C11.0861 9.68339 10.6651 9.77073 9.98182 9.59595L9.74389 10.4221C9.83845 10.4698 10.1089 10.5333 10.4272 10.5333ZM25.8783 2.65321C25.5763 0.985069 24.2413 0 22.6053 0C20.5239 0 19.015 1.6047 19.015 4.17839C19.015 6.75209 20.5239 8.35679 22.6053 8.35679C24.2413 8.35679 25.5763 7.37172 25.8783 5.70358H24.893C24.6551 6.83161 23.6861 7.43527 22.6053 7.43527C21.1279 7.43527 19.9677 6.29138 19.9677 4.17839C19.9677 2.06541 21.1279 0.921519 22.6053 0.921519C23.6861 0.921519 24.6551 1.52518 24.893 2.65321H25.8783ZM29.1381 8.38851C30.2027 8.38851 30.7589 7.81657 30.949 7.41941H30.9968V8.24555H31.9343V4.22608C31.9343 2.28778 30.4569 2.06541 29.678 2.06541C28.7568 2.06541 27.7085 2.38315 27.2317 3.49521L28.1213 3.81296C28.3278 3.36811 28.8168 2.89155 29.7096 2.89155C30.5718 2.89155 30.9968 3.34829 30.9968 4.13071V4.16253C30.9968 4.61531 30.5362 4.57555 29.4238 4.71861C28.2922 4.86554 27.0568 5.11577 27.0568 6.51386C27.0568 7.70533 27.978 8.38851 29.1381 8.38851ZM29.2815 7.54651C28.5341 7.54651 27.9942 7.2129 27.9942 6.56144C27.9942 5.84654 28.646 5.62417 29.3761 5.52879C29.7736 5.48111 30.8382 5.36997 30.9968 5.17932V6.03719C30.9968 6.79978 30.3928 7.54651 29.2815 7.54651ZM33.6456 8.24555H34.582V4.3849C34.582 3.55876 35.2338 2.9551 36.1235 2.9551C36.3736 2.9551 36.6319 3.00278 36.6959 3.01865V2.06541C36.5881 2.05748 36.3421 2.04944 36.2028 2.04944C35.4717 2.04944 34.8362 2.46256 34.6146 3.06623H34.5505V2.14482H33.6456V8.24555ZM39.9242 8.37265C41.1007 8.37265 41.4972 7.64178 41.7036 7.30817H41.8155V8.24555H42.7204V0.111238H41.7829V3.11392H41.7036C41.4972 2.79617 41.1322 2.06541 39.9405 2.06541C38.399 2.06541 37.3345 3.2887 37.3345 5.21104C37.3345 7.14935 38.399 8.37265 39.9242 8.37265ZM40.0513 7.53065C38.8759 7.53065 38.2719 6.49789 38.2719 5.19518C38.2719 3.90834 38.8597 2.90741 40.0513 2.90741C41.1952 2.90741 41.7992 3.82882 41.7992 5.19518C41.7992 6.57741 41.18 7.53065 40.0513 7.53065ZM48.8893 3.51108C48.5954 2.64528 47.9355 2.06541 46.7286 2.06541C45.4413 2.06541 44.4886 2.79617 44.4886 3.82882C44.4886 4.67093 44.9889 5.23494 46.1083 5.49707L47.1251 5.7353C47.7413 5.87837 48.0311 6.17222 48.0311 6.59327C48.0311 7.11752 47.4749 7.54651 46.6015 7.54651C45.8348 7.54651 45.3539 7.21687 45.1871 6.56144L44.2974 6.78392C44.516 7.82053 45.3702 8.37265 46.6167 8.37265C48.0351 8.37265 49.0001 7.59816 49.0001 6.54558C49.0001 5.69565 48.4683 5.15939 47.3793 4.8933L46.4744 4.67093C45.7515 4.49218 45.4251 4.24988 45.4251 3.78124C45.4251 3.25688 45.9812 2.87558 46.7286 2.87558C47.5461 2.87558 47.8837 3.32846 48.0474 3.74941L48.8893 3.51108Z" fill="#8B8B94"/>
</svg>
