<svg width="47" height="9" viewBox="0 0 47 9" fill="none" xmlns="http://www.w3.org/2000/svg">
<path d="M4.72896 2.25522H5.66914C5.62603 1.04542 4.51045 0.140925 2.95986 0.140925C1.4253 0.140925 0.218509 1.03359 0.218509 2.38052C0.218509 3.46112 1.00232 4.10331 2.25522 4.46344L3.2415 4.7454C4.08747 4.98024 4.83921 5.27783 4.83921 6.07658C4.83921 6.95361 3.99324 7.53305 2.88168 7.53305C1.92646 7.53305 1.08051 7.11017 1.00232 6.20187H0C0.0932183 7.51742 1.15869 8.41008 2.88168 8.41008C4.72896 8.41008 5.77839 7.39213 5.77839 6.09221C5.77839 4.58873 4.35309 4.10331 3.52316 3.884L2.70928 3.66469C2.11389 3.50813 1.15869 3.1949 1.15869 2.3335C1.15869 1.56613 1.86331 1.00232 2.92878 1.00232C3.89903 1.00232 4.63574 1.46429 4.72896 2.25522ZM9.86586 2.25522H8.58088V0.814387H7.65673V2.25522H6.74864V3.03824H7.65673V6.79695C7.65673 7.84628 8.5027 8.34744 9.2855 8.34744C9.63031 8.34744 9.84982 8.28479 9.97511 8.23779L9.78667 7.40776C9.7085 7.4234 9.58321 7.45477 9.37973 7.45477C8.97278 7.45477 8.58088 7.32948 8.58088 6.54637V3.03824H9.86586V2.25522ZM13.0252 8.41008C14.0746 8.41008 14.6229 7.84628 14.8103 7.45477H14.8574V8.26916H15.7816V4.30688C15.7816 2.39615 14.3252 2.17695 13.5574 2.17695C12.6493 2.17695 11.6159 2.49017 11.1458 3.58641L12.0228 3.89963C12.2263 3.46112 12.7074 2.99133 13.5885 2.99133C14.4384 2.99133 14.8574 3.44157 14.8574 4.21286V4.24423C14.8574 4.69057 14.4034 4.65137 13.3068 4.7924C12.1912 4.93724 10.9734 5.18391 10.9734 6.5621C10.9734 7.73662 11.8815 8.41008 13.0252 8.41008ZM13.1655 7.58006C12.4298 7.58006 11.8976 7.2512 11.8976 6.60901C11.8976 5.90428 12.539 5.68507 13.2597 5.59105C13.6516 5.54404 14.7011 5.43449 14.8574 5.24656V6.09221C14.8574 6.84395 14.262 7.58006 13.1655 7.58006ZM20.0835 2.25522H18.7996V0.814387H17.8754V2.25522H16.9663V3.03824H17.8754V6.79695C17.8754 7.84628 18.7204 8.34744 19.5042 8.34744C19.848 8.34744 20.0675 8.28479 20.1928 8.23779L20.0053 7.40776C19.9272 7.4234 19.8019 7.45477 19.5974 7.45477C19.1905 7.45477 18.7996 7.32948 18.7996 6.54637V3.03824H20.0835V2.25522ZM21.4737 8.26916H22.3969V2.25522H21.4737V8.26916ZM21.9428 1.2529C22.3037 1.2529 22.6014 0.971049 22.6014 0.626451C22.6014 0.281953 22.3037 0 21.9428 0C21.583 0 21.2853 0.281953 21.2853 0.626451C21.2853 0.971049 21.583 1.2529 21.9428 1.2529ZM28.3497 3.60205C28.06 2.74857 27.4095 2.17695 26.2197 2.17695C24.9508 2.17695 24.0116 2.89731 24.0116 3.91527C24.0116 4.7454 24.5048 5.30138 25.6093 5.55978L26.6117 5.79463C27.2181 5.93565 27.5037 6.22532 27.5037 6.64038C27.5037 7.15718 26.9555 7.58006 26.0945 7.58006C25.3387 7.58006 24.8646 7.25511 24.7002 6.60901L23.8232 6.82832C24.0387 7.85019 24.8806 8.39445 26.1105 8.39445C27.5077 8.39445 28.4589 7.63098 28.4589 6.59337C28.4589 5.75553 27.9347 5.22691 26.8622 4.9646L25.9692 4.7454C25.2565 4.56919 24.9358 4.33033 24.9358 3.86836C24.9358 3.35146 25.484 2.97559 26.2197 2.97559C27.0266 2.97559 27.3594 3.42203 27.5197 3.83699L28.3497 3.60205ZM32.4652 2.25522H31.1812V0.814387H30.2571V2.25522H29.349V3.03824H30.2571V6.79695C30.2571 7.84628 31.1031 8.34744 31.8859 8.34744C32.2307 8.34744 32.4502 8.28479 32.5755 8.23779L32.387 7.40776C32.3088 7.4234 32.1836 7.45477 31.9801 7.45477C31.5731 7.45477 31.1812 7.32948 31.1812 6.54637V3.03824H32.4652V2.25522ZM33.8554 8.26916H34.7796V2.25522H33.8554V8.26916ZM34.3255 1.2529C34.6854 1.2529 34.983 0.971049 34.983 0.626451C34.983 0.281953 34.6854 0 34.3255 0C33.9647 0 33.668 0.281953 33.668 0.626451C33.668 0.971049 33.9647 1.2529 34.3255 1.2529ZM38.9152 8.39445C40.2462 8.39445 41.1233 7.58006 41.2796 6.51509H40.3555C40.1841 7.17282 39.6358 7.56443 38.9152 7.56443C37.8186 7.56443 37.114 6.65602 37.114 5.26219C37.114 3.89963 37.8346 3.00697 38.9152 3.00697C39.729 3.00697 40.2152 3.50813 40.3555 4.0563H41.2796C41.1233 2.92869 40.1681 2.17695 38.8991 2.17695C37.2704 2.17695 36.1898 3.46112 36.1898 5.29346C36.1898 7.09453 37.2232 8.39445 38.9152 8.39445ZM46.8906 3.60205C46.601 2.74857 45.9504 2.17695 44.7607 2.17695C43.4918 2.17695 42.5526 2.89731 42.5526 3.91527C42.5526 4.7454 43.0457 5.30138 44.1503 5.55978L45.1526 5.79463C45.759 5.93565 46.0447 6.22532 46.0447 6.64038C46.0447 7.15718 45.4964 7.58006 44.6354 7.58006C43.8797 7.58006 43.4056 7.25511 43.2412 6.60901L42.3641 6.82832C42.5796 7.85019 43.4216 8.39445 44.6514 8.39445C46.0487 8.39445 46.9999 7.63098 46.9999 6.59337C46.9999 5.75553 46.4757 5.22691 45.4032 4.9646L44.5101 4.7454C43.7975 4.56919 43.4767 4.33033 43.4767 3.86836C43.4767 3.35146 44.025 2.97559 44.7607 2.97559C45.5676 2.97559 45.9003 3.42203 46.0607 3.83699L46.8906 3.60205Z" fill="#8B8B94"/>
</svg>
