<svg width="22" height="22" viewBox="0 0 22 22" fill="none" xmlns="http://www.w3.org/2000/svg">
<g clip-path="url(#clip0_1_5626)">
<path d="M15.5853 16.5022V10.9999C15.5854 10.5134 15.3922 10.0468 15.0482 9.70282C14.7042 9.35883 14.2376 9.16564 13.7512 9.16577H4.58068C4.09421 9.16564 3.62762 9.35883 3.28363 9.70282C2.93964 10.0468 2.74645 10.5134 2.74658 10.9999V16.5022C2.74645 16.9886 2.93964 17.4552 3.28363 17.7992C3.62762 18.1432 4.09421 18.3364 4.58068 18.3363H13.7512C14.7641 18.3363 15.5853 17.5151 15.5853 16.5022Z" stroke="#A2A2A7" stroke-width="1.3" stroke-linecap="round" stroke-linejoin="round"/>
<path d="M2.74658 12.9065H15.5853" stroke="#A2A2A7" stroke-width="1.3" stroke-linecap="round" stroke-linejoin="round"/>
<path d="M5.68115 9.16583L6.79078 5.02077C6.91668 4.55101 7.22434 4.15065 7.64586 3.90806C8.06739 3.66546 8.56812 3.60058 9.03755 3.72774L17.8962 6.10289C18.366 6.22879 18.7664 6.53645 19.009 6.95797C19.2516 7.3795 19.3164 7.88023 19.1893 8.34966L17.7679 13.6594C17.5149 14.615 16.5478 15.1961 15.5853 14.9708" stroke="#A2A2A7" stroke-width="1.3" stroke-linecap="round" stroke-linejoin="round"/>
</g>
<defs>
<clipPath id="clip0_1_5626">
<rect width="22" height="22" fill="white"/>
</clipPath>
</defs>
</svg>
