<svg width="42" height="11" viewBox="0 0 42 11" fill="none" xmlns="http://www.w3.org/2000/svg">
<path d="M4.74897 2.26429H5.69194C5.64867 1.04963 4.52859 0.141492 2.97176 0.141492C1.43103 0.141492 0.220385 1.03775 0.220385 2.39009C0.220385 3.47504 1.00635 4.11981 2.26429 4.48139L3.25455 4.76448C4.10391 5.00027 4.85867 5.29905 4.85867 6.10101C4.85867 6.98157 4.00932 7.56334 2.89326 7.56334C1.93421 7.56334 1.08485 7.13877 1.00635 6.22681H0C0.0945913 7.54765 1.16335 8.4439 2.89326 8.4439C4.74897 8.4439 5.80161 7.42185 5.80161 6.11671C5.80161 4.60718 4.37159 4.11981 3.53731 3.89962L2.72017 3.67943C2.12241 3.52224 1.16335 3.20775 1.16335 2.34289C1.16335 1.57243 1.87082 1.00635 2.94056 1.00635C3.9147 1.00635 4.65438 1.47018 4.74897 2.26429ZM9.81093 8.42821C11.0377 8.42821 11.9333 7.81493 12.2171 6.90298L11.3205 6.65139C11.085 7.28036 10.5385 7.59485 9.81093 7.59485C8.72205 7.59485 7.97131 6.8912 7.92804 5.59784H12.3107V5.20476C12.3107 2.95616 10.9743 2.1857 9.71634 2.1857C8.08101 2.1857 6.99616 3.47504 6.99616 5.33055C6.99616 7.18596 8.0659 8.42821 9.81093 8.42821ZM7.92804 4.79587C7.99044 3.85634 8.65464 3.01906 9.71634 3.01906C10.7227 3.01906 11.3678 3.77382 11.3678 4.79587H7.92804ZM16.3482 2.26429H15.0591V0.817662H14.1312V2.26429H13.2194V3.05046H14.1312V6.82428C14.1312 7.87783 14.9806 8.38101 15.7665 8.38101C16.1127 8.38101 16.3321 8.31811 16.4579 8.27091L16.2697 7.43755C16.1912 7.45325 16.0654 7.48475 15.8611 7.48475C15.4515 7.48475 15.0591 7.35896 15.0591 6.57269V3.05046H16.3482V2.26429ZM20.3696 2.26429H19.0804V0.817662H18.1526V2.26429H17.2408V3.05046H18.1526V6.82428C18.1526 7.87783 19.0019 8.38101 19.7879 8.38101C20.1341 8.38101 20.3535 8.31811 20.4793 8.27091L20.2911 7.43755C20.2126 7.45325 20.0868 7.48475 19.8825 7.48475C19.4729 7.48475 19.0804 7.35896 19.0804 6.57269V3.05046H20.3696V2.26429ZM21.7654 8.30241H22.6932V2.26429H21.7654V8.30241ZM22.2374 1.25794C22.5987 1.25794 22.8975 0.974954 22.8975 0.628971C22.8975 0.283087 22.5987 0 22.2374 0C21.8751 0 21.5762 0.283087 21.5762 0.628971C21.5762 0.974954 21.8751 1.25794 22.2374 1.25794ZM25.3198 4.67008C25.3198 3.61653 25.9719 3.01906 26.8606 3.01906C27.722 3.01906 28.2443 3.58121 28.2443 4.52859V8.30241H29.1722V4.46569C29.1722 2.92466 28.351 2.1857 27.1283 2.1857C26.2165 2.1857 25.6499 2.59448 25.3671 3.20775H25.2886V2.26429H24.392V8.30241H25.3198V4.67008ZM33.3052 10.6925C34.7514 10.6925 35.9147 10.0321 35.9147 8.47541V2.26429H35.0191V3.22345H34.9245C34.7202 2.90896 34.3428 2.1857 33.1634 2.1857C31.6377 2.1857 30.5841 3.39644 30.5841 5.25185C30.5841 7.13877 31.685 8.20802 33.1472 8.20802C34.3267 8.20802 34.7041 7.51625 34.9084 7.18596H34.9869V8.41251C34.9869 9.41886 34.2794 9.87484 33.3052 9.87484C32.2083 9.87484 31.8229 9.29699 31.5753 8.96288L30.8356 9.48176C31.213 10.1147 31.9567 10.6925 33.3052 10.6925ZM33.273 7.37465C32.1097 7.37465 31.5119 6.49409 31.5119 5.23615C31.5119 4.00971 32.0936 3.01906 33.273 3.01906C34.4052 3.01906 35.0029 3.93102 35.0029 5.23615C35.0029 6.57269 34.3901 7.37465 33.273 7.37465ZM41.8905 3.61653C41.5996 2.75962 40.9465 2.1857 39.752 2.1857C38.4779 2.1857 37.535 2.90896 37.535 3.93102C37.535 4.76448 38.0301 5.3227 39.1381 5.58214L40.1444 5.81793C40.7543 5.95952 41.0411 6.25036 41.0411 6.66709C41.0411 7.18596 40.4906 7.61054 39.6262 7.61054C38.8674 7.61054 38.3913 7.28428 38.2263 6.63559L37.3457 6.85578C37.5621 7.88176 38.4075 8.42821 39.6412 8.42821C41.0451 8.42821 42.0001 7.66167 42.0001 6.61989C42.0001 5.77868 41.4738 5.24793 40.396 4.98456L39.5004 4.76448C38.7848 4.58756 38.4628 4.34775 38.4628 3.88392C38.4628 3.36494 39.0123 2.98756 39.752 2.98756C40.5621 2.98756 40.8962 3.43579 41.0572 3.85242L41.8905 3.61653Z" fill="#0066FF"/>
</svg>
